<?xml version="1.0" encoding="UTF-8"?>
<svg id="Layer_1" data-name="Layer 1" xmlns="http://www.w3.org/2000/svg" viewBox="0 0 170.73 90.37">
  <defs>
    <style>
      .cls-1 {
        fill: #9aca3c;
      }

      .cls-2 {
        letter-spacing: -.03em;
      }

      .cls-3 {
        letter-spacing: -.02em;
      }

      .cls-4 {
        fill: #8e191b;
      }

      .cls-5 {
        fill: #0b8140;
      }

      .cls-6 {
        fill: none;
        stroke: #636464;
        stroke-miterlimit: 10;
      }

      .cls-7 {
        letter-spacing: 0em;
      }

      .cls-8 {
        fill: #ed2024;
      }

      .cls-9 {
        letter-spacing: .02em;
      }

      .cls-10 {
        letter-spacing: .02em;
      }

      .cls-11 {
        letter-spacing: .02em;
      }

      .cls-12 {
        fill: #231f20;
        font-family: Arial-Black, Arial;
        font-size: 4px;
        font-weight: 800;
      }

      .cls-13 {
        fill: #f7ec1c;
      }

      .cls-14 {
        fill: #f1ac1e;
      }

      .cls-15 {
        fill: #206131;
      }
    </style>
  </defs>
  <g>
    <rect class="cls-4" x="73.79" y="7.8" width="16.47" height="9.82"/>
    <rect class="cls-8" x="90.25" y="7.8" width="16.03" height="9.82"/>
    <rect class="cls-14" x="106.28" y="7.8" width="3.72" height="9.82"/>
    <rect class="cls-13" x="110" y="7.8" width="9.88" height="9.82"/>
    <rect class="cls-1" x="119.88" y="7.8" width="17.27" height="9.82"/>
    <rect class="cls-5" x="137.15" y="7.8" width="17.14" height="9.82"/>
  </g>
  <g>
    <rect class="cls-4" x="70.81" y="19.72" width="14.7" height="9.82"/>
    <rect class="cls-8" x="85.51" y="19.72" width="13.39" height="9.82"/>
    <rect class="cls-14" x="98.9" y="19.72" width="25.35" height="9.82"/>
    <rect class="cls-13" x="124.25" y="19.72" width="7.18" height="9.82"/>
    <rect class="cls-1" x="131.44" y="19.72" width="9.47" height="9.82"/>
    <rect class="cls-5" x="140.91" y="19.72" width="4.3" height="9.82"/>
    <rect class="cls-15" x="145.21" y="19.72" width="6.13" height="9.82"/>
  </g>
  <g>
    <rect class="cls-4" x="65.28" y="31.63" width="6.48" height="9.82"/>
    <rect class="cls-8" x="71.76" y="31.63" width="30.49" height="9.82"/>
    <rect class="cls-14" x="102.25" y="31.63" width="15.68" height="9.82"/>
    <rect class="cls-1" x="117.92" y="31.63" width="28.53" height="9.82"/>
    <rect class="cls-5" x="146.45" y="31.63" width="1.82" height="9.82"/>
  </g>
  <g>
    <rect class="cls-4" x="63.33" y="43.54" width="17.66" height="9.82"/>
    <rect class="cls-8" x="81" y="43.54" width="25.29" height="9.82"/>
    <rect class="cls-14" x="106.28" y="43.54" width="5.55" height="9.82"/>
    <rect class="cls-13" x="111.83" y="43.54" width="9.49" height="9.82"/>
    <rect class="cls-1" x="121.33" y="43.54" width="14.85" height="9.82"/>
    <rect class="cls-5" x="136.17" y="43.54" width="2.8" height="9.82"/>
    <rect class="cls-15" x="138.97" y="43.54" width="4.89" height="9.82"/>
  </g>
  <g>
    <rect class="cls-4" x="59.2" y="55.46" width="9.83" height="9.82"/>
    <rect class="cls-8" x="69.03" y="55.46" width="22.15" height="9.82"/>
    <rect class="cls-14" x="91.18" y="55.46" width="22.25" height="9.82"/>
    <rect class="cls-13" x="113.44" y="55.46" width="17.66" height="9.82"/>
    <rect class="cls-1" x="131.09" y="55.46" width="7.07" height="9.82"/>
  </g>
  <line class="cls-6" x1="158.13" y1="12.72" x2="160.44" y2="12.72"/>
  <line class="cls-6" x1="158.13" y1="24.51" x2="160.44" y2="24.51"/>
  <line class="cls-6" x1="158.13" y1="36.31" x2="160.44" y2="36.31"/>
  <line class="cls-6" x1="158.13" y1="48.1" x2="160.44" y2="48.1"/>
  <line class="cls-6" x1="158.13" y1="59.9" x2="160.44" y2="59.9"/>
  <line class="cls-6" x1="158.13" y1="71.69" x2="160.44" y2="71.69"/>
  <line class="cls-6" x1="158.13" y1="83.49" x2="160.44" y2="83.49"/>
  <g>
    <rect class="cls-4" x="50.84" y="67.37" width="16.22" height="9.82"/>
    <rect class="cls-8" x="67.06" y="67.37" width="16.92" height="9.82"/>
    <rect class="cls-14" x="83.98" y="67.37" width="22.73" height="9.82"/>
    <rect class="cls-13" x="106.7" y="67.37" width="3.74" height="9.82"/>
    <rect class="cls-1" x="110.44" y="67.37" width="6.52" height="9.82"/>
    <rect class="cls-5" x="116.97" y="67.37" width="10.02" height="9.82"/>
    <rect class="cls-15" x="126.98" y="67.37" width="4.38" height="9.82"/>
  </g>
  <line class="cls-6" x1="158.13" y1="12.72" x2="160.44" y2="12.72"/>
  <line class="cls-6" x1="158.13" y1="24.51" x2="160.44" y2="24.51"/>
  <line class="cls-6" x1="158.13" y1="36.31" x2="160.44" y2="36.31"/>
  <line class="cls-6" x1="158.13" y1="48.1" x2="160.44" y2="48.1"/>
  <line class="cls-6" x1="158.13" y1="59.9" x2="160.44" y2="59.9"/>
  <line class="cls-6" x1="158.13" y1="71.69" x2="160.44" y2="71.69"/>
  <line class="cls-6" x1="158.13" y1="83.49" x2="160.44" y2="83.49"/>
  <line class="cls-6" x1="158.13" y1="83.49" x2="158.13" y2="85.04"/>
  <line class="cls-6" x1="142.07" y1="83.49" x2="142.07" y2="85.04"/>
  <line class="cls-6" x1="126" y1="83.49" x2="126" y2="85.04"/>
  <line class="cls-6" x1="109.93" y1="83.49" x2="109.93" y2="85.04"/>
  <line class="cls-6" x1="93.86" y1="83.49" x2="93.86" y2="85.04"/>
  <line class="cls-6" x1="77.79" y1="83.49" x2="77.79" y2="85.04"/>
  <line class="cls-6" x1="61.73" y1="83.49" x2="61.73" y2="85.04"/>
  <polyline class="cls-6" points="45.81 85.04 45.81 83.49 158.04 83.49 158.04 .5 160.31 .5"/>
  <text class="cls-12" transform="translate(161.39 13.77)"><tspan x="0" y="0">5.17</tspan></text>
  <text class="cls-12" transform="translate(161.39 25.57)"><tspan x="0" y="0">5.09</tspan></text>
  <text class="cls-12" transform="translate(161.39 37.37)"><tspan x="0" y="0">5.00</tspan></text>
  <text class="cls-12" transform="translate(161.39 49.18)"><tspan x="0" y="0">4.68</tspan></text>
  <text class="cls-12" transform="translate(161.39 60.98)"><tspan x="0" y="0">4.53</tspan></text>
  <text class="cls-12" transform="translate(161.28 72.68)"><tspan x="0" y="0">4.35</tspan></text>
  <text class="cls-12" transform="translate(41.41 89.14)"><tspan x="0" y="0">-60%</tspan></text>
  <text class="cls-12" transform="translate(138.39 89.14)"><tspan x="0" y="0">60%</tspan></text>
  <text class="cls-12" transform="translate(154.28 89.14)"><tspan x="0" y="0">60%</tspan></text>
  <text class="cls-12" transform="translate(57.53 89.14)"><tspan x="0" y="0">-40%</tspan></text>
  <text class="cls-12" transform="translate(122.5 89.14)"><tspan x="0" y="0">40%</tspan></text>
  <text class="cls-12" transform="translate(73.5 89.14)"><tspan x="0" y="0">-20%</tspan></text>
  <text class="cls-12" transform="translate(106.61 89.14)"><tspan x="0" y="0">20%</tspan></text>
  <text class="cls-12" transform="translate(91.47 89.14)"><tspan x="0" y="0">0%</tspan></text>
  <g>
    <g>
      <text class="cls-12" transform="translate(9.68 11.02)"><tspan x="0" y="0">St</tspan><tspan class="cls-11" x="4.66" y="0">r</tspan><tspan x="6.5" y="0">on</tspan><tspan class="cls-7" x="11.84" y="0">g</tspan><tspan class="cls-10" x="14.55" y="0">l</tspan><tspan x="15.95" y="0">y N</tspan><tspan class="cls-9" x="23.06" y="0">e</tspan><tspan x="25.82" y="0">g</tspan><tspan class="cls-3" x="28.49" y="0">a</tspan><tspan x="31.09" y="0">ti</tspan><tspan class="cls-2" x="34.2" y="0">v</tspan><tspan x="36.54" y="0">e</tspan></text>
      <rect class="cls-4" x=".09" y="8.1" width="8.26" height="3.64"/>
    </g>
    <g>
      <text class="cls-12" transform="translate(9.45 20.25)"><tspan x="0" y="0">N</tspan><tspan class="cls-9" x="3.33" y="0">e</tspan><tspan x="6.1" y="0">g</tspan><tspan class="cls-3" x="8.77" y="0">a</tspan><tspan x="11.37" y="0">ti</tspan><tspan class="cls-2" x="14.47" y="0">v</tspan><tspan x="16.81" y="0">e</tspan></text>
      <rect class="cls-8" x=".09" y="17.25" width="8.26" height="3.64"/>
    </g>
    <g>
      <text class="cls-12" transform="translate(9.26 29.47)"><tspan x="0" y="0">Mild</tspan><tspan class="cls-10" x="9.11" y="0">l</tspan><tspan x="10.51" y="0">y N</tspan><tspan class="cls-9" x="17.62" y="0">e</tspan><tspan x="20.38" y="0">g</tspan><tspan class="cls-3" x="23.05" y="0">a</tspan><tspan x="25.65" y="0">ti</tspan><tspan class="cls-2" x="28.76" y="0">v</tspan><tspan x="31.1" y="0">e</tspan></text>
      <rect class="cls-14" x=".09" y="26.48" width="8.26" height="3.64"/>
    </g>
    <g>
      <text class="cls-12" transform="translate(9.94 38.7)"><tspan x="0" y="0">Netu</tspan><tspan class="cls-10" x="10.44" y="0">r</tspan><tspan x="12.29" y="0">al</tspan></text>
      <rect class="cls-13" x=".09" y="35.78" width="8.26" height="3.64"/>
    </g>
    <g>
      <text class="cls-12" transform="translate(9.68 47.92)"><tspan x="0" y="0">Mild</tspan><tspan class="cls-10" x="9.11" y="0">l</tspan><tspan x="10.51" y="0">y </tspan><tspan class="cls-2" x="14.29" y="0">P</tspan><tspan x="17.07" y="0">ositi</tspan><tspan class="cls-2" x="26.62" y="0">v</tspan><tspan x="28.96" y="0">e</tspan></text>
      <rect class="cls-1" x=".09" y="44.69" width="8.26" height="3.64"/>
    </g>
    <g>
      <text class="cls-12" transform="translate(9.36 57.15)"><tspan class="cls-2" x="0" y="0">P</tspan><tspan x="2.79" y="0">ositi</tspan><tspan class="cls-2" x="12.34" y="0">v</tspan><tspan x="14.68" y="0">e</tspan></text>
      <rect class="cls-5" y="53.88" width="8.26" height="3.64"/>
    </g>
    <g>
      <text class="cls-12" transform="translate(9.17 66.37)"><tspan x="0" y="0">St</tspan><tspan class="cls-11" x="4.66" y="0">r</tspan><tspan x="6.5" y="0">on</tspan><tspan class="cls-7" x="11.84" y="0">g</tspan><tspan class="cls-10" x="14.55" y="0">l</tspan><tspan x="15.95" y="0">y </tspan><tspan class="cls-2" x="19.72" y="0">P</tspan><tspan x="22.51" y="0">ositi</tspan><tspan class="cls-2" x="32.06" y="0">v</tspan><tspan x="34.4" y="0">e</tspan></text>
      <rect class="cls-15" y="63.1" width="8.26" height="3.64"/>
    </g>
  </g>
</svg>