<?xml version="1.0" encoding="UTF-8"?>
<svg id="Layer_1" data-name="Layer 1" xmlns="http://www.w3.org/2000/svg" viewBox="0 0 170.62 90.37">
  <defs>
    <style>
      .cls-1 {
        fill: #9aca3c;
      }

      .cls-2 {
        letter-spacing: -.03em;
      }

      .cls-3 {
        letter-spacing: -.02em;
      }

      .cls-4 {
        fill: #8e191b;
      }

      .cls-5 {
        fill: #0b8140;
      }

      .cls-6 {
        fill: none;
        stroke: #636464;
        stroke-miterlimit: 10;
      }

      .cls-7 {
        letter-spacing: 0em;
      }

      .cls-8 {
        fill: #ed2024;
      }

      .cls-9 {
        letter-spacing: .02em;
      }

      .cls-10 {
        letter-spacing: .02em;
      }

      .cls-11 {
        letter-spacing: .02em;
      }

      .cls-12 {
        fill: #231f20;
        font-family: Arial-Black, Arial;
        font-size: 4px;
        font-weight: 800;
      }

      .cls-13 {
        fill: #f7ec1c;
      }

      .cls-14 {
        fill: #f1ac1e;
      }

      .cls-15 {
        fill: #206131;
      }
    </style>
  </defs>
  <g>
    <g>
      <text class="cls-12" transform="translate(9.68 11.02)"><tspan x="0" y="0">St</tspan><tspan class="cls-11" x="4.66" y="0">r</tspan><tspan x="6.5" y="0">on</tspan><tspan class="cls-7" x="11.84" y="0">g</tspan><tspan class="cls-10" x="14.55" y="0">l</tspan><tspan x="15.95" y="0">y N</tspan><tspan class="cls-9" x="23.06" y="0">e</tspan><tspan x="25.82" y="0">g</tspan><tspan class="cls-3" x="28.49" y="0">a</tspan><tspan x="31.09" y="0">ti</tspan><tspan class="cls-2" x="34.2" y="0">v</tspan><tspan x="36.54" y="0">e</tspan></text>
      <rect class="cls-4" x=".09" y="8.1" width="8.26" height="3.64"/>
    </g>
    <g>
      <text class="cls-12" transform="translate(9.45 20.25)"><tspan x="0" y="0">N</tspan><tspan class="cls-9" x="3.33" y="0">e</tspan><tspan x="6.1" y="0">g</tspan><tspan class="cls-3" x="8.77" y="0">a</tspan><tspan x="11.37" y="0">ti</tspan><tspan class="cls-2" x="14.47" y="0">v</tspan><tspan x="16.81" y="0">e</tspan></text>
      <rect class="cls-8" x=".09" y="17.25" width="8.26" height="3.64"/>
    </g>
    <g>
      <text class="cls-12" transform="translate(9.26 29.47)"><tspan x="0" y="0">Mild</tspan><tspan class="cls-10" x="9.11" y="0">l</tspan><tspan x="10.51" y="0">y N</tspan><tspan class="cls-9" x="17.62" y="0">e</tspan><tspan x="20.38" y="0">g</tspan><tspan class="cls-3" x="23.05" y="0">a</tspan><tspan x="25.65" y="0">ti</tspan><tspan class="cls-2" x="28.76" y="0">v</tspan><tspan x="31.1" y="0">e</tspan></text>
      <rect class="cls-14" x=".09" y="26.48" width="8.26" height="3.64"/>
    </g>
    <g>
      <text class="cls-12" transform="translate(9.94 38.7)"><tspan x="0" y="0">Netu</tspan><tspan class="cls-10" x="10.44" y="0">r</tspan><tspan x="12.29" y="0">al</tspan></text>
      <rect class="cls-13" x=".09" y="35.78" width="8.26" height="3.64"/>
    </g>
    <g>
      <text class="cls-12" transform="translate(9.68 47.92)"><tspan x="0" y="0">Mild</tspan><tspan class="cls-10" x="9.11" y="0">l</tspan><tspan x="10.51" y="0">y </tspan><tspan class="cls-2" x="14.29" y="0">P</tspan><tspan x="17.07" y="0">ositi</tspan><tspan class="cls-2" x="26.62" y="0">v</tspan><tspan x="28.96" y="0">e</tspan></text>
      <rect class="cls-1" x=".09" y="44.69" width="8.26" height="3.64"/>
    </g>
    <g>
      <text class="cls-12" transform="translate(9.36 57.15)"><tspan class="cls-2" x="0" y="0">P</tspan><tspan x="2.79" y="0">ositi</tspan><tspan class="cls-2" x="12.34" y="0">v</tspan><tspan x="14.68" y="0">e</tspan></text>
      <rect class="cls-5" y="53.88" width="8.26" height="3.64"/>
    </g>
    <g>
      <text class="cls-12" transform="translate(9.17 66.37)"><tspan x="0" y="0">St</tspan><tspan class="cls-11" x="4.66" y="0">r</tspan><tspan x="6.5" y="0">on</tspan><tspan class="cls-7" x="11.84" y="0">g</tspan><tspan class="cls-10" x="14.55" y="0">l</tspan><tspan x="15.95" y="0">y </tspan><tspan class="cls-2" x="19.72" y="0">P</tspan><tspan x="22.51" y="0">ositi</tspan><tspan class="cls-2" x="32.06" y="0">v</tspan><tspan x="34.4" y="0">e</tspan></text>
      <rect class="cls-15" y="63.1" width="8.26" height="3.64"/>
    </g>
  </g>
  <g>
    <g>
      <rect class="cls-4" x="73.68" y="7.8" width="1.92" height="9.82"/>
      <rect class="cls-14" x="75.6" y="7.8" width="3.51" height="9.82"/>
      <rect class="cls-13" x="79.1" y="7.8" width="7.7" height="9.82"/>
      <rect class="cls-1" x="86.8" y="7.8" width="9.28" height="9.82"/>
      <rect class="cls-5" x="96.09" y="7.8" width="10.03" height="9.82"/>
      <rect class="cls-15" x="106.12" y="7.8" width="48.09" height="9.82"/>
    </g>
    <g>
      <rect class="cls-8" x="70.62" y="19.72" width="3.65" height="9.82"/>
      <rect class="cls-14" x="74.27" y="19.72" width="6.3" height="9.82"/>
      <rect class="cls-13" x="80.57" y="19.72" width="17.4" height="9.82"/>
      <rect class="cls-1" x="97.97" y="19.72" width="16.3" height="9.82"/>
      <rect class="cls-5" x="114.27" y="19.72" width="15.04" height="9.82"/>
      <rect class="cls-15" x="129.31" y="19.72" width="21.92" height="9.82"/>
    </g>
    <g>
      <rect class="cls-8" x="66.66" y="31.63" width="7.35" height="9.82"/>
      <rect class="cls-13" x="74.01" y="31.63" width="4.2" height="9.82"/>
      <rect class="cls-1" x="78.21" y="31.63" width="7.07" height="9.82"/>
      <rect class="cls-5" x="85.28" y="31.63" width="26.71" height="9.82"/>
      <rect class="cls-15" x="112" y="31.63" width="33.7" height="9.82"/>
    </g>
    <g>
      <rect class="cls-14" x="63.55" y="43.54" width="8.67" height="9.82"/>
      <rect class="cls-13" x="72.22" y="43.54" width="11.3" height="9.82"/>
      <rect class="cls-1" x="83.52" y="43.54" width="14.45" height="9.82"/>
      <rect class="cls-5" x="97.97" y="43.54" width="6.38" height="9.82"/>
      <rect class="cls-15" x="104.35" y="43.54" width="39.41" height="9.82"/>
    </g>
    <g>
      <rect class="cls-8" x="59.48" y="55.46" width="1.89" height="9.82"/>
      <rect class="cls-14" x="61.37" y="55.46" width="4.8" height="9.82"/>
      <rect class="cls-1" x="66.17" y="55.46" width="23.8" height="9.82"/>
      <rect class="cls-5" x="89.97" y="55.46" width="40.84" height="9.82"/>
      <rect class="cls-15" x="130.8" y="55.46" width="8.81" height="9.82"/>
    </g>
    <line class="cls-6" x1="158.03" y1="12.72" x2="160.34" y2="12.72"/>
    <line class="cls-6" x1="158.03" y1="24.51" x2="160.34" y2="24.51"/>
    <line class="cls-6" x1="158.03" y1="36.31" x2="160.34" y2="36.31"/>
    <line class="cls-6" x1="158.03" y1="48.1" x2="160.34" y2="48.1"/>
    <line class="cls-6" x1="158.03" y1="59.9" x2="160.34" y2="59.9"/>
    <line class="cls-6" x1="158.03" y1="71.69" x2="160.34" y2="71.69"/>
    <line class="cls-6" x1="158.03" y1="83.49" x2="160.34" y2="83.49"/>
    <g>
      <rect class="cls-14" x="53.97" y="67.37" width="10.93" height="9.82"/>
      <rect class="cls-13" x="64.89" y="67.37" width="4.69" height="9.82"/>
      <rect class="cls-1" x="69.59" y="67.37" width="12.97" height="9.82"/>
      <rect class="cls-5" x="82.56" y="67.37" width="17.86" height="9.82"/>
      <rect class="cls-15" x="100.42" y="67.37" width="30.84" height="9.82"/>
    </g>
    <line class="cls-6" x1="158.03" y1="12.72" x2="160.34" y2="12.72"/>
    <line class="cls-6" x1="158.03" y1="24.51" x2="160.34" y2="24.51"/>
    <line class="cls-6" x1="158.03" y1="36.31" x2="160.34" y2="36.31"/>
    <line class="cls-6" x1="158.03" y1="48.1" x2="160.34" y2="48.1"/>
    <line class="cls-6" x1="158.03" y1="59.9" x2="160.34" y2="59.9"/>
    <line class="cls-6" x1="158.03" y1="71.69" x2="160.34" y2="71.69"/>
    <line class="cls-6" x1="158.03" y1="83.49" x2="160.34" y2="83.49"/>
    <line class="cls-6" x1="158.03" y1="83.49" x2="158.03" y2="85.04"/>
    <line class="cls-6" x1="141.96" y1="83.49" x2="141.96" y2="85.04"/>
    <line class="cls-6" x1="125.89" y1="83.49" x2="125.89" y2="85.04"/>
    <line class="cls-6" x1="109.82" y1="83.49" x2="109.82" y2="85.04"/>
    <line class="cls-6" x1="93.76" y1="83.49" x2="93.76" y2="85.04"/>
    <line class="cls-6" x1="77.69" y1="83.49" x2="77.69" y2="85.04"/>
    <line class="cls-6" x1="61.62" y1="83.49" x2="61.62" y2="85.04"/>
    <polyline class="cls-6" points="45.7 85.04 45.7 83.49 157.94 83.49 157.94 .5 160.21 .5"/>
    <text class="cls-12" transform="translate(161.28 13.77)"><tspan x="0" y="0">5.17</tspan></text>
    <text class="cls-12" transform="translate(161.28 25.57)"><tspan x="0" y="0">5.09</tspan></text>
    <text class="cls-12" transform="translate(161.28 37.37)"><tspan x="0" y="0">5.00</tspan></text>
    <text class="cls-12" transform="translate(161.28 49.18)"><tspan x="0" y="0">4.68</tspan></text>
    <text class="cls-12" transform="translate(161.28 60.98)"><tspan x="0" y="0">4.53</tspan></text>
    <text class="cls-12" transform="translate(161.18 72.68)"><tspan x="0" y="0">4.35</tspan></text>
    <text class="cls-12" transform="translate(41.3 89.14)"><tspan x="0" y="0">-60%</tspan></text>
    <text class="cls-12" transform="translate(138.29 89.14)"><tspan x="0" y="0">60%</tspan></text>
    <text class="cls-12" transform="translate(154.18 89.14)"><tspan x="0" y="0">60%</tspan></text>
    <text class="cls-12" transform="translate(57.42 89.14)"><tspan x="0" y="0">-40%</tspan></text>
    <text class="cls-12" transform="translate(122.39 89.14)"><tspan x="0" y="0">40%</tspan></text>
    <text class="cls-12" transform="translate(73.4 89.14)"><tspan x="0" y="0">-20%</tspan></text>
    <text class="cls-12" transform="translate(106.5 89.14)"><tspan x="0" y="0">20%</tspan></text>
    <text class="cls-12" transform="translate(91.36 89.14)"><tspan x="0" y="0">0%</tspan></text>
  </g>
</svg>